<svg version="1.1" xmlns="http://www.w3.org/2000/svg" xmlns:xlink="http://www.w3.org/1999/xlink" width="334.01806640625" height="380"><defs/><g><text fill="#eeeeee" stroke="none" font-family="Arial" font-size="24px" font-style="normal" font-weight="normal" text-decoration="none" x="0" y="0">UNREGISTERED</text><text fill="#eeeeee" stroke="none" font-family="Arial" font-size="24px" font-style="normal" font-weight="normal" text-decoration="none" x="0" y="30">UNREGISTERED</text><text fill="#eeeeee" stroke="none" font-family="Arial" font-size="24px" font-style="normal" font-weight="normal" text-decoration="none" x="0" y="60">UNREGISTERED</text><text fill="#eeeeee" stroke="none" font-family="Arial" font-size="24px" font-style="normal" font-weight="normal" text-decoration="none" x="0" y="90">UNREGISTERED</text><text fill="#eeeeee" stroke="none" font-family="Arial" font-size="24px" font-style="normal" font-weight="normal" text-decoration="none" x="0" y="120">UNREGISTERED</text><text fill="#eeeeee" stroke="none" font-family="Arial" font-size="24px" font-style="normal" font-weight="normal" text-decoration="none" x="0" y="150">UNREGISTERED</text><text fill="#eeeeee" stroke="none" font-family="Arial" font-size="24px" font-style="normal" font-weight="normal" text-decoration="none" x="0" y="180">UNREGISTERED</text><text fill="#eeeeee" stroke="none" font-family="Arial" font-size="24px" font-style="normal" font-weight="normal" text-decoration="none" x="0" y="210">UNREGISTERED</text><text fill="#eeeeee" stroke="none" font-family="Arial" font-size="24px" font-style="normal" font-weight="normal" text-decoration="none" x="0" y="240">UNREGISTERED</text><text fill="#eeeeee" stroke="none" font-family="Arial" font-size="24px" font-style="normal" font-weight="normal" text-decoration="none" x="0" y="270">UNREGISTERED</text><text fill="#eeeeee" stroke="none" font-family="Arial" font-size="24px" font-style="normal" font-weight="normal" text-decoration="none" x="0" y="300">UNREGISTERED</text><text fill="#eeeeee" stroke="none" font-family="Arial" font-size="24px" font-style="normal" font-weight="normal" text-decoration="none" x="0" y="330">UNREGISTERED</text><text fill="#eeeeee" stroke="none" font-family="Arial" font-size="24px" font-style="normal" font-weight="normal" text-decoration="none" x="0" y="360">UNREGISTERED</text><text fill="#eeeeee" stroke="none" font-family="Arial" font-size="24px" font-style="normal" font-weight="normal" text-decoration="none" x="200" y="0">UNREGISTERED</text><text fill="#eeeeee" stroke="none" font-family="Arial" font-size="24px" font-style="normal" font-weight="normal" text-decoration="none" x="200" y="30">UNREGISTERED</text><text fill="#eeeeee" stroke="none" font-family="Arial" font-size="24px" font-style="normal" font-weight="normal" text-decoration="none" x="200" y="60">UNREGISTERED</text><text fill="#eeeeee" stroke="none" font-family="Arial" font-size="24px" font-style="normal" font-weight="normal" text-decoration="none" x="200" y="90">UNREGISTERED</text><text fill="#eeeeee" stroke="none" font-family="Arial" font-size="24px" font-style="normal" font-weight="normal" text-decoration="none" x="200" y="120">UNREGISTERED</text><text fill="#eeeeee" stroke="none" font-family="Arial" font-size="24px" font-style="normal" font-weight="normal" text-decoration="none" x="200" y="150">UNREGISTERED</text><text fill="#eeeeee" stroke="none" font-family="Arial" font-size="24px" font-style="normal" font-weight="normal" text-decoration="none" x="200" y="180">UNREGISTERED</text><text fill="#eeeeee" stroke="none" font-family="Arial" font-size="24px" font-style="normal" font-weight="normal" text-decoration="none" x="200" y="210">UNREGISTERED</text><text fill="#eeeeee" stroke="none" font-family="Arial" font-size="24px" font-style="normal" font-weight="normal" text-decoration="none" x="200" y="240">UNREGISTERED</text><text fill="#eeeeee" stroke="none" font-family="Arial" font-size="24px" font-style="normal" font-weight="normal" text-decoration="none" x="200" y="270">UNREGISTERED</text><text fill="#eeeeee" stroke="none" font-family="Arial" font-size="24px" font-style="normal" font-weight="normal" text-decoration="none" x="200" y="300">UNREGISTERED</text><text fill="#eeeeee" stroke="none" font-family="Arial" font-size="24px" font-style="normal" font-weight="normal" text-decoration="none" x="200" y="330">UNREGISTERED</text><text fill="#eeeeee" stroke="none" font-family="Arial" font-size="24px" font-style="normal" font-weight="normal" text-decoration="none" x="200" y="360">UNREGISTERED</text><g transform="translate(-150,-158) scale(1,1)"><rect fill="#C0C0C0" stroke="none" x="167" y="175" width="101.142578125" height="130" opacity="0.2"/></g><g transform="translate(-150,-158) scale(1,1)"><rect fill="#ffffff" stroke="none" x="160" y="168" width="101.142578125" height="130"/></g><g transform="translate(-150,-158) scale(1,1)"><path fill="none" stroke="#000000" d="M 160 168 L 261.142578125 168 L 261.142578125 298 L 160 298 L 160 168 Z Z" stroke-miterlimit="10"/></g><g transform="translate(-150,-158) scale(1,1)"><path fill="none" stroke="#000000" d="M 160 193 L 261.142578125 193" stroke-miterlimit="10"/></g><g transform="translate(-150,-158) scale(1,1)"><path fill="none" stroke="#000000" d="M 160 261 L 261.142578125 261" stroke-miterlimit="10"/></g><g transform="translate(-150,-158) scale(1,1)"><g><path fill="none" stroke="none"/><text fill="#000000" stroke="none" font-family="Arial" font-size="13px" font-style="normal" font-weight="bold" text-decoration="none" x="172.63134765625" y="187.5">Metagenome</text></g></g><g transform="translate(-150,-158) scale(1,1)"><g><path fill="none" stroke="none"/><text fill="#000000" stroke="none" font-family="Arial" font-size="13px" font-style="normal" font-weight="normal" text-decoration="none" x="165" y="210.5">+sequences</text></g></g><g transform="translate(-150,-158) scale(1,1)"><g><path fill="none" stroke="none"/><text fill="#000000" stroke="none" font-family="Arial" font-size="13px" font-style="normal" font-weight="normal" text-decoration="none" x="165" y="225.5">+orfs</text></g></g><g transform="translate(-150,-158) scale(1,1)"><g><path fill="none" stroke="none"/><text fill="#000000" stroke="none" font-family="Arial" font-size="13px" font-style="normal" font-weight="normal" text-decoration="none" x="165" y="240.5">+kmer_freqs</text></g></g><g transform="translate(-150,-158) scale(1,1)"><g><path fill="none" stroke="none"/><text fill="#000000" stroke="none" font-family="Arial" font-size="13px" font-style="normal" font-weight="normal" text-decoration="none" x="165" y="255.5">+taxonomy_info</text></g></g><g transform="translate(-150,-158) scale(1,1)"><g><path fill="none" stroke="none"/><text fill="#000000" stroke="none" font-family="Arial" font-size="13px" font-style="normal" font-weight="normal" text-decoration="none" x="165" y="278.5">+length_filter()</text></g></g><g transform="translate(-150,-158) scale(1,1)"><rect fill="#C0C0C0" stroke="none" x="167" y="375" width="136.5625" height="160" opacity="0.2"/></g><g transform="translate(-150,-158) scale(1,1)"><rect fill="#ffffff" stroke="none" x="160" y="368" width="136.5625" height="160"/></g><g transform="translate(-150,-158) scale(1,1)"><path fill="none" stroke="#000000" d="M 160 368 L 296.5625 368 L 296.5625 528 L 160 528 L 160 368 Z Z" stroke-miterlimit="10"/></g><g transform="translate(-150,-158) scale(1,1)"><path fill="none" stroke="#000000" d="M 160 393 L 296.5625 393" stroke-miterlimit="10"/></g><g transform="translate(-150,-158) scale(1,1)"><path fill="none" stroke="#000000" d="M 160 476 L 296.5625 476" stroke-miterlimit="10"/></g><g transform="translate(-150,-158) scale(1,1)"><g><path fill="none" stroke="none"/><text fill="#000000" stroke="none" font-family="Arial" font-size="13px" font-style="normal" font-weight="bold" text-decoration="none" x="218.88671875" y="387.5">Bin</text></g></g><g transform="translate(-150,-158) scale(1,1)"><g><path fill="none" stroke="none"/><text fill="#000000" stroke="none" font-family="Arial" font-size="13px" font-style="normal" font-weight="normal" text-decoration="none" x="165" y="410.5">+parent_metagenome</text></g></g><g transform="translate(-150,-158) scale(1,1)"><g><path fill="none" stroke="none"/><text fill="#000000" stroke="none" font-family="Arial" font-size="13px" font-style="normal" font-weight="normal" text-decoration="none" x="165" y="425.5">+contig_names</text></g></g><g transform="translate(-150,-158) scale(1,1)"><g><path fill="none" stroke="none"/><text fill="#000000" stroke="none" font-family="Arial" font-size="13px" font-style="normal" font-weight="normal" text-decoration="none" x="165" y="440.5">+status</text></g></g><g transform="translate(-150,-158) scale(1,1)"><g><path fill="none" stroke="none"/><text fill="#000000" stroke="none" font-family="Arial" font-size="13px" font-style="normal" font-weight="normal" text-decoration="none" x="165" y="455.5">+marker_set</text></g></g><g transform="translate(-150,-158) scale(1,1)"><g><path fill="none" stroke="none"/><text fill="#000000" stroke="none" font-family="Arial" font-size="13px" font-style="normal" font-weight="normal" text-decoration="none" x="165" y="470.5">+core_markers</text></g></g><g transform="translate(-150,-158) scale(1,1)"><g><path fill="none" stroke="none"/><text fill="#000000" stroke="none" font-family="Arial" font-size="13px" font-style="normal" font-weight="normal" text-decoration="none" x="165" y="493.5">+split_taxonomy()</text></g></g><g transform="translate(-150,-158) scale(1,1)"><g><path fill="none" stroke="none"/><text fill="#000000" stroke="none" font-family="Arial" font-size="13px" font-style="normal" font-weight="normal" text-decoration="none" x="165" y="508.5">+split_nucleotide()</text></g></g><g transform="translate(-150,-158) scale(1,1)"><rect fill="#C0C0C0" stroke="none" x="351" y="375" width="130.01806640625" height="145" opacity="0.2"/></g><g transform="translate(-150,-158) scale(1,1)"><rect fill="#ffffff" stroke="none" x="344" y="368" width="130.01806640625" height="145"/></g><g transform="translate(-150,-158) scale(1,1)"><path fill="none" stroke="#000000" d="M 344 368 L 474.01806640625 368 L 474.01806640625 513 L 344 513 L 344 368 Z Z" stroke-miterlimit="10"/></g><g transform="translate(-150,-158) scale(1,1)"><path fill="none" stroke="#000000" d="M 344 393 L 474.01806640625 393" stroke-miterlimit="10"/></g><g transform="translate(-150,-158) scale(1,1)"><path fill="none" stroke="#000000" d="M 344 476 L 474.01806640625 476" stroke-miterlimit="10"/></g><g transform="translate(-150,-158) scale(1,1)"><g><path fill="none" stroke="none"/><text fill="#000000" stroke="none" font-family="Arial" font-size="13px" font-style="italic" font-weight="bold" text-decoration="none" x="386.98583984375" y="387.5">Markers</text></g></g><g transform="translate(-150,-158) scale(1,1)"><g><path fill="none" stroke="none"/><text fill="#000000" stroke="none" font-family="Arial" font-size="13px" font-style="normal" font-weight="normal" text-decoration="none" x="349" y="410.5">+sequences</text></g></g><g transform="translate(-150,-158) scale(1,1)"><g><path fill="none" stroke="none"/><text fill="#000000" stroke="none" font-family="Arial" font-size="13px" font-style="normal" font-weight="normal" text-decoration="none" x="349" y="425.5">+orfs</text></g></g><g transform="translate(-150,-158) scale(1,1)"><g><path fill="none" stroke="none"/><text fill="#000000" stroke="none" font-family="Arial" font-size="13px" font-style="normal" font-weight="normal" text-decoration="none" x="349" y="440.5">+taxid</text></g></g><g transform="translate(-150,-158) scale(1,1)"><g><path fill="none" stroke="none"/><text fill="#000000" stroke="none" font-family="Arial" font-size="13px" font-style="normal" font-weight="normal" text-decoration="none" x="349" y="455.5">+marker_set</text></g></g><g transform="translate(-150,-158) scale(1,1)"><g><path fill="none" stroke="none"/><text fill="#000000" stroke="none" font-family="Arial" font-size="13px" font-style="normal" font-weight="normal" text-decoration="none" x="349" y="470.5">+core_markers</text></g></g><g transform="translate(-150,-158) scale(1,1)"><g><path fill="none" stroke="none"/><text fill="#000000" stroke="none" font-family="Arial" font-size="13px" font-style="normal" font-weight="normal" text-decoration="none" x="349" y="493.5">+get_marker_set()</text></g></g><g transform="translate(-150,-158) scale(1,1)"><g><path fill="none" stroke="none"/><text fill="#000000" stroke="none" font-family="Arial" font-size="13px" font-style="normal" font-weight="normal" text-decoration="none" x="349" y="508.5">+get_core_markers()</text></g></g><g transform="translate(-150,-158) scale(1,1)"><rect fill="#C0C0C0" stroke="none" x="343" y="175" width="135.81982421875" height="115" opacity="0.2"/></g><g transform="translate(-150,-158) scale(1,1)"><rect fill="#ffffff" stroke="none" x="336" y="168" width="135.81982421875" height="115"/></g><g transform="translate(-150,-158) scale(1,1)"><path fill="none" stroke="#000000" d="M 336 168 L 471.81982421875 168 L 471.81982421875 283 L 336 283 L 336 168 Z Z" stroke-miterlimit="10"/></g><g transform="translate(-150,-158) scale(1,1)"><path fill="none" stroke="#000000" d="M 336 193 L 471.81982421875 193" stroke-miterlimit="10"/></g><g transform="translate(-150,-158) scale(1,1)"><path fill="none" stroke="#000000" d="M 336 231 L 471.81982421875 231" stroke-miterlimit="10"/></g><g transform="translate(-150,-158) scale(1,1)"><g><path fill="none" stroke="none"/><text fill="#000000" stroke="none" font-family="Arial" font-size="13px" font-style="normal" font-weight="bold" text-decoration="none" x="362.351806640625" y="187.5">Dependencies</text></g></g><g transform="translate(-150,-158) scale(1,1)"><g><path fill="none" stroke="none"/><text fill="#000000" stroke="none" font-family="Arial" font-size="13px" font-style="normal" font-weight="normal" text-decoration="none" x="341" y="210.5">+executables</text></g></g><g transform="translate(-150,-158) scale(1,1)"><g><path fill="none" stroke="none"/><text fill="#000000" stroke="none" font-family="Arial" font-size="13px" font-style="normal" font-weight="normal" text-decoration="none" x="341" y="225.5">+databases</text></g></g><g transform="translate(-150,-158) scale(1,1)"><g><path fill="none" stroke="none"/><text fill="#000000" stroke="none" font-family="Arial" font-size="13px" font-style="normal" font-weight="normal" text-decoration="none" x="341" y="248.5">+check_executables()</text></g></g><g transform="translate(-150,-158) scale(1,1)"><g><path fill="none" stroke="none"/><text fill="#000000" stroke="none" font-family="Arial" font-size="13px" font-style="normal" font-weight="normal" text-decoration="none" x="341" y="263.5">+check_databases()</text></g></g><g transform="translate(-150,-158) scale(1,1)"><g><path fill="none" stroke="none"/><text fill="#000000" stroke="none" font-family="Arial" font-size="13px" font-style="normal" font-weight="normal" text-decoration="none" x="341" y="278.5">+update_databases()</text></g></g></g></svg>